<svg xmlns="http://www.w3.org/2000/svg" xmlns:xlink="http://www.w3.org/1999/xlink" width="500" zoomAndPan="magnify" viewBox="0 0 375 66" height="88" preserveAspectRatio="xMidYMid meet" version="1.2"><defs><clipPath id="4593a608a4"><path d="M 337 25 L 346 25 L 346 36.703125 L 337 36.703125 Z M 337 25 "/></clipPath><clipPath id="0e1c9a6f9e"><path d="M 325 23.203125 L 344 23.203125 L 344 36.703125 L 325 36.703125 Z M 325 23.203125 "/></clipPath><clipPath id="b2ac7696ea"><path d="M 313 23.203125 L 332 23.203125 L 332 36.703125 L 313 36.703125 Z M 313 23.203125 "/></clipPath><clipPath id="3500f2d621"><path d="M 301 23.203125 L 320 23.203125 L 320 36.703125 L 301 36.703125 Z M 301 23.203125 "/></clipPath><clipPath id="69653dcbf7"><path d="M 289 23.203125 L 308 23.203125 L 308 36.703125 L 289 36.703125 Z M 289 23.203125 "/></clipPath><clipPath id="d8856a2b3b"><path d="M 277 23.203125 L 296 23.203125 L 296 36.703125 L 277 36.703125 Z M 277 23.203125 "/></clipPath><clipPath id="f370d09aef"><path d="M 265 23.203125 L 284 23.203125 L 284 36.703125 L 265 36.703125 Z M 265 23.203125 "/></clipPath><clipPath id="fb9e243368"><path d="M 253 23.203125 L 272 23.203125 L 272 36.703125 L 253 36.703125 Z M 253 23.203125 "/></clipPath><clipPath id="bcaf24a279"><path d="M 241 23.203125 L 260 23.203125 L 260 36.703125 L 241 36.703125 Z M 241 23.203125 "/></clipPath><clipPath id="877295040f"><path d="M 229 23.203125 L 248 23.203125 L 248 36.703125 L 229 36.703125 Z M 229 23.203125 "/></clipPath><clipPath id="26a7e96b33"><path d="M 217 23.203125 L 236 23.203125 L 236 36.703125 L 217 36.703125 Z M 217 23.203125 "/></clipPath><clipPath id="241910938a"><path d="M 205 23.203125 L 224 23.203125 L 224 36.703125 L 205 36.703125 Z M 205 23.203125 "/></clipPath><clipPath id="a44b4da98f"><path d="M 193 23.203125 L 212 23.203125 L 212 36.703125 L 193 36.703125 Z M 193 23.203125 "/></clipPath><clipPath id="0a236198b7"><path d="M 181 23.203125 L 200 23.203125 L 200 36.703125 L 181 36.703125 Z M 181 23.203125 "/></clipPath><clipPath id="105629dd69"><path d="M 170 23.203125 L 188 23.203125 L 188 36.703125 L 170 36.703125 Z M 170 23.203125 "/></clipPath><clipPath id="7bf2ef6eb5"><path d="M 158 23.203125 L 176 23.203125 L 176 36.703125 L 158 36.703125 Z M 158 23.203125 "/></clipPath><clipPath id="c3f956594c"><path d="M 146 23.203125 L 164 23.203125 L 164 36.703125 L 146 36.703125 Z M 146 23.203125 "/></clipPath><clipPath id="6fd757d1bb"><path d="M 134 23.203125 L 152 23.203125 L 152 36.703125 L 134 36.703125 Z M 134 23.203125 "/></clipPath><clipPath id="cf7502a059"><path d="M 122 23.203125 L 141 23.203125 L 141 36.703125 L 122 36.703125 Z M 122 23.203125 "/></clipPath><clipPath id="07d7f5e30c"><path d="M 110 23.203125 L 129 23.203125 L 129 36.703125 L 110 36.703125 Z M 110 23.203125 "/></clipPath><clipPath id="bed9a8486a"><path d="M 98 23.203125 L 117 23.203125 L 117 36.703125 L 98 36.703125 Z M 98 23.203125 "/></clipPath><clipPath id="36992741e2"><path d="M 86 23.203125 L 105 23.203125 L 105 36.703125 L 86 36.703125 Z M 86 23.203125 "/></clipPath><clipPath id="114d5836b5"><path d="M 74 23.203125 L 93 23.203125 L 93 36.703125 L 74 36.703125 Z M 74 23.203125 "/></clipPath><clipPath id="8a69f984c6"><path d="M 62 23.203125 L 81 23.203125 L 81 36.703125 L 62 36.703125 Z M 62 23.203125 "/></clipPath><clipPath id="12351d6cda"><path d="M 50 23.203125 L 69 23.203125 L 69 36.703125 L 50 36.703125 Z M 50 23.203125 "/></clipPath><clipPath id="c3654a2b21"><path d="M 38 23.203125 L 57 23.203125 L 57 36.703125 L 38 36.703125 Z M 38 23.203125 "/></clipPath><clipPath id="67a4998968"><path d="M 26 23.203125 L 45 23.203125 L 45 36.703125 L 26 36.703125 Z M 26 23.203125 "/></clipPath><clipPath id="cc0ed9e3dc"><path d="M 14 23.203125 L 33 23.203125 L 33 36.703125 L 14 36.703125 Z M 14 23.203125 "/></clipPath><clipPath id="0e5ab5be74"><path d="M 2 23.203125 L 21 23.203125 L 21 36.703125 L 2 36.703125 Z M 2 23.203125 "/></clipPath><clipPath id="526a6d650c"><path d="M 0 23.203125 L 9 23.203125 L 9 36.703125 L 0 36.703125 Z M 0 23.203125 "/></clipPath></defs><g id="bb7a448a69"><g clip-rule="nonzero" clip-path="url(#4593a608a4)"><path style=" stroke:none;fill-rule:nonzero;fill:#a37c25;fill-opacity:1;" d="M 337.292969 34.101562 C 339.554688 36.351562 343.042969 36.644531 345.625 34.980469 L 345.625 25.824219 L 337.292969 34.101562 "/></g><g clip-rule="nonzero" clip-path="url(#0e1c9a6f9e)"><path style=" stroke:none;fill-rule:nonzero;fill:#a37c25;fill-opacity:1;" d="M 325.34375 34.101562 C 327.949219 36.6875 332.171875 36.6875 334.773438 34.101562 L 343.128906 25.804688 C 340.523438 23.21875 336.304688 23.21875 333.703125 25.804688 L 325.34375 34.101562 "/></g><g clip-rule="nonzero" clip-path="url(#b2ac7696ea)"><path style=" stroke:none;fill-rule:nonzero;fill:#a37c25;fill-opacity:1;" d="M 313.398438 34.101562 C 316 36.6875 320.222656 36.6875 322.828125 34.101562 L 331.183594 25.804688 C 328.582031 23.21875 324.359375 23.21875 321.753906 25.804688 L 313.398438 34.101562 "/></g><g clip-rule="nonzero" clip-path="url(#3500f2d621)"><path style=" stroke:none;fill-rule:nonzero;fill:#a37c25;fill-opacity:1;" d="M 301.453125 34.101562 C 304.058594 36.6875 308.277344 36.6875 310.878906 34.101562 L 319.238281 25.804688 C 316.632812 23.21875 312.410156 23.21875 309.808594 25.804688 L 301.453125 34.101562 "/></g><g clip-rule="nonzero" clip-path="url(#69653dcbf7)"><path style=" stroke:none;fill-rule:nonzero;fill:#a37c25;fill-opacity:1;" d="M 289.507812 34.101562 C 292.113281 36.6875 296.332031 36.6875 298.9375 34.101562 L 307.289062 25.804688 C 304.6875 23.21875 300.464844 23.21875 297.863281 25.804688 L 289.507812 34.101562 "/></g><g clip-rule="nonzero" clip-path="url(#d8856a2b3b)"><path style=" stroke:none;fill-rule:nonzero;fill:#a37c25;fill-opacity:1;" d="M 277.5625 34.101562 C 280.164062 36.6875 284.386719 36.6875 286.992188 34.101562 L 295.34375 25.804688 C 292.742188 23.21875 288.519531 23.21875 285.917969 25.804688 L 277.5625 34.101562 "/></g><g clip-rule="nonzero" clip-path="url(#f370d09aef)"><path style=" stroke:none;fill-rule:nonzero;fill:#a37c25;fill-opacity:1;" d="M 265.613281 34.101562 C 268.21875 36.6875 272.441406 36.6875 275.042969 34.101562 L 283.398438 25.804688 C 280.796875 23.21875 276.574219 23.21875 273.972656 25.804688 L 265.613281 34.101562 "/></g><g clip-rule="nonzero" clip-path="url(#fb9e243368)"><path style=" stroke:none;fill-rule:nonzero;fill:#a37c25;fill-opacity:1;" d="M 253.671875 34.101562 C 256.273438 36.6875 260.492188 36.6875 263.097656 34.101562 L 271.453125 25.804688 C 268.847656 23.21875 264.628906 23.21875 262.023438 25.804688 L 253.671875 34.101562 "/></g><g clip-rule="nonzero" clip-path="url(#bcaf24a279)"><path style=" stroke:none;fill-rule:nonzero;fill:#a37c25;fill-opacity:1;" d="M 241.722656 34.101562 C 244.328125 36.6875 248.550781 36.6875 251.152344 34.101562 L 259.503906 25.804688 C 256.902344 23.21875 252.683594 23.21875 250.082031 25.804688 L 241.722656 34.101562 "/></g><g clip-rule="nonzero" clip-path="url(#877295040f)"><path style=" stroke:none;fill-rule:nonzero;fill:#a37c25;fill-opacity:1;" d="M 229.777344 34.101562 C 232.378906 36.6875 236.601562 36.6875 239.207031 34.101562 L 247.5625 25.804688 C 244.957031 23.21875 240.738281 23.21875 238.132812 25.804688 L 229.777344 34.101562 "/></g><g clip-rule="nonzero" clip-path="url(#26a7e96b33)"><path style=" stroke:none;fill-rule:nonzero;fill:#a37c25;fill-opacity:1;" d="M 217.832031 34.101562 C 220.433594 36.6875 224.65625 36.6875 227.257812 34.101562 L 235.617188 25.804688 C 233.011719 23.21875 228.789062 23.21875 226.1875 25.804688 L 217.832031 34.101562 "/></g><g clip-rule="nonzero" clip-path="url(#241910938a)"><path style=" stroke:none;fill-rule:nonzero;fill:#a37c25;fill-opacity:1;" d="M 205.886719 34.101562 C 208.492188 36.6875 212.710938 36.6875 215.3125 34.101562 L 223.667969 25.804688 C 221.066406 23.21875 216.84375 23.21875 214.238281 25.804688 L 205.886719 34.101562 "/></g><g clip-rule="nonzero" clip-path="url(#a44b4da98f)"><path style=" stroke:none;fill-rule:nonzero;fill:#a37c25;fill-opacity:1;" d="M 193.941406 34.101562 C 196.542969 36.6875 200.765625 36.6875 203.371094 34.101562 L 211.722656 25.804688 C 209.117188 23.21875 204.898438 23.21875 202.296875 25.804688 L 193.941406 34.101562 "/></g><g clip-rule="nonzero" clip-path="url(#0a236198b7)"><path style=" stroke:none;fill-rule:nonzero;fill:#a37c25;fill-opacity:1;" d="M 181.992188 34.101562 C 184.597656 36.6875 188.820312 36.6875 191.421875 34.101562 L 199.777344 25.804688 C 197.175781 23.21875 192.953125 23.21875 190.347656 25.804688 L 181.992188 34.101562 "/></g><g clip-rule="nonzero" clip-path="url(#105629dd69)"><path style=" stroke:none;fill-rule:nonzero;fill:#a37c25;fill-opacity:1;" d="M 170.046875 34.101562 C 172.652344 36.6875 176.871094 36.6875 179.476562 34.101562 L 187.832031 25.804688 C 185.230469 23.21875 181.007812 23.21875 178.402344 25.804688 L 170.046875 34.101562 "/></g><g clip-rule="nonzero" clip-path="url(#7bf2ef6eb5)"><path style=" stroke:none;fill-rule:nonzero;fill:#a37c25;fill-opacity:1;" d="M 158.105469 34.101562 C 160.707031 36.6875 164.925781 36.6875 167.53125 34.101562 L 175.886719 25.804688 C 173.28125 23.21875 169.058594 23.21875 166.457031 25.804688 L 158.105469 34.101562 "/></g><g clip-rule="nonzero" clip-path="url(#c3f956594c)"><path style=" stroke:none;fill-rule:nonzero;fill:#a37c25;fill-opacity:1;" d="M 146.15625 34.101562 C 148.761719 36.6875 152.980469 36.6875 155.585938 34.101562 L 163.9375 25.804688 C 161.335938 23.21875 157.117188 23.21875 154.511719 25.804688 L 146.15625 34.101562 "/></g><g clip-rule="nonzero" clip-path="url(#6fd757d1bb)"><path style=" stroke:none;fill-rule:nonzero;fill:#a37c25;fill-opacity:1;" d="M 134.210938 34.101562 C 136.8125 36.6875 141.035156 36.6875 143.636719 34.101562 L 151.996094 25.804688 C 149.390625 23.21875 145.167969 23.21875 142.566406 25.804688 L 134.210938 34.101562 "/></g><g clip-rule="nonzero" clip-path="url(#cf7502a059)"><path style=" stroke:none;fill-rule:nonzero;fill:#a37c25;fill-opacity:1;" d="M 122.265625 34.101562 C 124.867188 36.6875 129.089844 36.6875 131.691406 34.101562 L 140.046875 25.804688 C 137.445312 23.21875 133.222656 23.21875 130.617188 25.804688 L 122.265625 34.101562 "/></g><g clip-rule="nonzero" clip-path="url(#07d7f5e30c)"><path style=" stroke:none;fill-rule:nonzero;fill:#a37c25;fill-opacity:1;" d="M 110.320312 34.101562 C 112.921875 36.6875 117.144531 36.6875 119.746094 34.101562 L 128.101562 25.804688 C 125.496094 23.21875 121.277344 23.21875 118.675781 25.804688 L 110.320312 34.101562 "/></g><g clip-rule="nonzero" clip-path="url(#bed9a8486a)"><path style=" stroke:none;fill-rule:nonzero;fill:#a37c25;fill-opacity:1;" d="M 98.375 34.101562 C 100.976562 36.6875 105.199219 36.6875 107.800781 34.101562 L 116.15625 25.804688 C 113.550781 23.21875 109.332031 23.21875 106.730469 25.804688 L 98.375 34.101562 "/></g><g clip-rule="nonzero" clip-path="url(#36992741e2)"><path style=" stroke:none;fill-rule:nonzero;fill:#a37c25;fill-opacity:1;" d="M 86.425781 34.101562 C 89.03125 36.6875 93.25 36.6875 95.855469 34.101562 L 104.210938 25.804688 C 101.605469 23.21875 97.386719 23.21875 94.78125 25.804688 L 86.425781 34.101562 "/></g><g clip-rule="nonzero" clip-path="url(#114d5836b5)"><path style=" stroke:none;fill-rule:nonzero;fill:#a37c25;fill-opacity:1;" d="M 74.480469 34.101562 C 77.085938 36.6875 81.304688 36.6875 83.90625 34.101562 L 92.265625 25.804688 C 89.660156 23.21875 85.4375 23.21875 82.835938 25.804688 L 74.480469 34.101562 "/></g><g clip-rule="nonzero" clip-path="url(#8a69f984c6)"><path style=" stroke:none;fill-rule:nonzero;fill:#a37c25;fill-opacity:1;" d="M 62.535156 34.101562 C 65.140625 36.6875 69.359375 36.6875 71.964844 34.101562 L 80.316406 25.804688 C 77.714844 23.21875 73.492188 23.21875 70.890625 25.804688 L 62.535156 34.101562 "/></g><g clip-rule="nonzero" clip-path="url(#12351d6cda)"><path style=" stroke:none;fill-rule:nonzero;fill:#a37c25;fill-opacity:1;" d="M 50.589844 34.101562 C 53.191406 36.6875 57.414062 36.6875 60.019531 34.101562 L 68.371094 25.804688 C 65.769531 23.21875 61.546875 23.21875 58.945312 25.804688 L 50.589844 34.101562 "/></g><g clip-rule="nonzero" clip-path="url(#c3654a2b21)"><path style=" stroke:none;fill-rule:nonzero;fill:#a37c25;fill-opacity:1;" d="M 38.640625 34.101562 C 41.246094 36.6875 45.46875 36.6875 48.070312 34.101562 L 56.425781 25.804688 C 53.824219 23.21875 49.601562 23.21875 47 25.804688 L 38.640625 34.101562 "/></g><g clip-rule="nonzero" clip-path="url(#67a4998968)"><path style=" stroke:none;fill-rule:nonzero;fill:#a37c25;fill-opacity:1;" d="M 26.699219 34.101562 C 29.300781 36.6875 33.519531 36.6875 36.125 34.101562 L 44.480469 25.804688 C 41.875 23.21875 37.65625 23.21875 35.050781 25.804688 L 26.699219 34.101562 "/></g><g clip-rule="nonzero" clip-path="url(#cc0ed9e3dc)"><path style=" stroke:none;fill-rule:nonzero;fill:#a37c25;fill-opacity:1;" d="M 14.75 34.101562 C 17.355469 36.6875 21.578125 36.6875 24.179688 34.101562 L 32.53125 25.804688 C 29.929688 23.21875 25.710938 23.21875 23.109375 25.804688 L 14.75 34.101562 "/></g><g clip-rule="nonzero" clip-path="url(#0e5ab5be74)"><path style=" stroke:none;fill-rule:nonzero;fill:#a37c25;fill-opacity:1;" d="M 2.804688 34.101562 C 5.410156 36.6875 9.628906 36.6875 12.234375 34.101562 L 20.589844 25.804688 C 17.984375 23.21875 13.765625 23.21875 11.160156 25.804688 L 2.804688 34.101562 "/></g><g clip-rule="nonzero" clip-path="url(#526a6d650c)"><path style=" stroke:none;fill-rule:nonzero;fill:#a37c25;fill-opacity:1;" d="M -9.140625 34.101562 C -6.539062 36.6875 -2.316406 36.6875 0.285156 34.101562 L 8.644531 25.804688 C 6.039062 23.21875 1.816406 23.21875 -0.785156 25.804688 L -9.140625 34.101562 "/></g><g style="fill:#ae0429;fill-opacity:1;"><g transform="translate(368.997318, 15.159136)"><path style="stroke:none" d="M -0.96875 -4.140625 C -2.632812 -4.140625 -4.050781 -4.09375 -5.21875 -4 C -6.394531 -3.90625 -7.375 -3.660156 -8.15625 -3.265625 C -8.9375 -2.878906 -9.550781 -2.296875 -10 -1.515625 C -10.457031 -0.734375 -10.796875 0.34375 -11.015625 1.71875 C -11.242188 3.09375 -11.390625 4.8125 -11.453125 6.875 C -11.515625 8.945312 -11.546875 11.457031 -11.546875 14.40625 C -11.546875 17.34375 -11.515625 19.835938 -11.453125 21.890625 C -11.390625 23.941406 -11.242188 25.644531 -11.015625 27 C -10.796875 28.363281 -10.457031 29.429688 -10 30.203125 C -9.550781 30.984375 -8.929688 31.5625 -8.140625 31.9375 C -7.359375 32.3125 -6.378906 32.539062 -5.203125 32.625 C -4.035156 32.71875 -2.609375 32.765625 -0.921875 32.765625 L -0.984375 35.546875 L -21.90625 35.546875 L -21.90625 -6.46875 L -0.96875 -6.46875 Z M -0.96875 -4.140625 "/></g></g></g></svg>