<svg xmlns="http://www.w3.org/2000/svg" xmlns:xlink="http://www.w3.org/1999/xlink" width="500" zoomAndPan="magnify" viewBox="0 0 375 66" height="88" preserveAspectRatio="xMidYMid meet" version="1.2"><defs><clipPath id="c5f35692ff"><path d="M 21 25 L 30 25 L 30 36.703125 L 21 36.703125 Z M 21 25 "/></clipPath><clipPath id="da3fc8aada"><path d="M 23 23.203125 L 42 23.203125 L 42 36.703125 L 23 36.703125 Z M 23 23.203125 "/></clipPath><clipPath id="64933da17a"><path d="M 35 23.203125 L 54 23.203125 L 54 36.703125 L 35 36.703125 Z M 35 23.203125 "/></clipPath><clipPath id="5009594f60"><path d="M 47 23.203125 L 66 23.203125 L 66 36.703125 L 47 36.703125 Z M 47 23.203125 "/></clipPath><clipPath id="bcb39477ef"><path d="M 59 23.203125 L 78 23.203125 L 78 36.703125 L 59 36.703125 Z M 59 23.203125 "/></clipPath><clipPath id="75afb1fb8a"><path d="M 71 23.203125 L 90 23.203125 L 90 36.703125 L 71 36.703125 Z M 71 23.203125 "/></clipPath><clipPath id="70be068c4a"><path d="M 83 23.203125 L 102 23.203125 L 102 36.703125 L 83 36.703125 Z M 83 23.203125 "/></clipPath><clipPath id="a4eaa02b06"><path d="M 95 23.203125 L 114 23.203125 L 114 36.703125 L 95 36.703125 Z M 95 23.203125 "/></clipPath><clipPath id="15d5a742a6"><path d="M 107 23.203125 L 126 23.203125 L 126 36.703125 L 107 36.703125 Z M 107 23.203125 "/></clipPath><clipPath id="d385098fc0"><path d="M 119 23.203125 L 138 23.203125 L 138 36.703125 L 119 36.703125 Z M 119 23.203125 "/></clipPath><clipPath id="7e40d29ce4"><path d="M 131 23.203125 L 150 23.203125 L 150 36.703125 L 131 36.703125 Z M 131 23.203125 "/></clipPath><clipPath id="cbc96d1d05"><path d="M 143 23.203125 L 162 23.203125 L 162 36.703125 L 143 36.703125 Z M 143 23.203125 "/></clipPath><clipPath id="b9133a7d81"><path d="M 155 23.203125 L 174 23.203125 L 174 36.703125 L 155 36.703125 Z M 155 23.203125 "/></clipPath><clipPath id="92d0273908"><path d="M 167 23.203125 L 186 23.203125 L 186 36.703125 L 167 36.703125 Z M 167 23.203125 "/></clipPath><clipPath id="f8dc40fcad"><path d="M 179 23.203125 L 198 23.203125 L 198 36.703125 L 179 36.703125 Z M 179 23.203125 "/></clipPath><clipPath id="f5b69cb773"><path d="M 191 23.203125 L 210 23.203125 L 210 36.703125 L 191 36.703125 Z M 191 23.203125 "/></clipPath><clipPath id="60206bbe9c"><path d="M 203 23.203125 L 221 23.203125 L 221 36.703125 L 203 36.703125 Z M 203 23.203125 "/></clipPath><clipPath id="313c88d00f"><path d="M 215 23.203125 L 233 23.203125 L 233 36.703125 L 215 36.703125 Z M 215 23.203125 "/></clipPath><clipPath id="8247e7d9ad"><path d="M 227 23.203125 L 245 23.203125 L 245 36.703125 L 227 36.703125 Z M 227 23.203125 "/></clipPath><clipPath id="d4ca133cb1"><path d="M 239 23.203125 L 257 23.203125 L 257 36.703125 L 239 36.703125 Z M 239 23.203125 "/></clipPath><clipPath id="162a2093e0"><path d="M 250 23.203125 L 269 23.203125 L 269 36.703125 L 250 36.703125 Z M 250 23.203125 "/></clipPath><clipPath id="ae41a77cc4"><path d="M 262 23.203125 L 281 23.203125 L 281 36.703125 L 262 36.703125 Z M 262 23.203125 "/></clipPath><clipPath id="cd60290457"><path d="M 274 23.203125 L 293 23.203125 L 293 36.703125 L 274 36.703125 Z M 274 23.203125 "/></clipPath><clipPath id="fd4e1bf93e"><path d="M 286 23.203125 L 305 23.203125 L 305 36.703125 L 286 36.703125 Z M 286 23.203125 "/></clipPath><clipPath id="d118e162fe"><path d="M 298 23.203125 L 317 23.203125 L 317 36.703125 L 298 36.703125 Z M 298 23.203125 "/></clipPath><clipPath id="7c9293cc50"><path d="M 310 23.203125 L 329 23.203125 L 329 36.703125 L 310 36.703125 Z M 310 23.203125 "/></clipPath><clipPath id="ea5c3512f8"><path d="M 322 23.203125 L 341 23.203125 L 341 36.703125 L 322 36.703125 Z M 322 23.203125 "/></clipPath><clipPath id="9398503349"><path d="M 334 23.203125 L 353 23.203125 L 353 36.703125 L 334 36.703125 Z M 334 23.203125 "/></clipPath><clipPath id="9f3c5d30e0"><path d="M 346 23.203125 L 365 23.203125 L 365 36.703125 L 346 36.703125 Z M 346 23.203125 "/></clipPath><clipPath id="cf0dd951cf"><path d="M 358 23.203125 L 375 23.203125 L 375 36.703125 L 358 36.703125 Z M 358 23.203125 "/></clipPath><clipPath id="f0a1dc342c"><path d="M 370 23.203125 L 375 23.203125 L 375 36.703125 L 370 36.703125 Z M 370 23.203125 "/></clipPath></defs><g id="9d4dd73312"><g clip-rule="nonzero" clip-path="url(#c5f35692ff)"><path style=" stroke:none;fill-rule:nonzero;fill:#a37c25;fill-opacity:1;" d="M 29.828125 34.101562 C 27.566406 36.351562 24.074219 36.644531 21.496094 34.980469 L 21.496094 25.824219 L 29.828125 34.101562 "/></g><g clip-rule="nonzero" clip-path="url(#da3fc8aada)"><path style=" stroke:none;fill-rule:nonzero;fill:#a37c25;fill-opacity:1;" d="M 41.777344 34.101562 C 39.171875 36.6875 34.949219 36.6875 32.347656 34.101562 L 23.992188 25.804688 C 26.59375 23.21875 30.816406 23.21875 33.417969 25.804688 L 41.777344 34.101562 "/></g><g clip-rule="nonzero" clip-path="url(#64933da17a)"><path style=" stroke:none;fill-rule:nonzero;fill:#a37c25;fill-opacity:1;" d="M 53.722656 34.101562 C 51.117188 36.6875 46.898438 36.6875 44.292969 34.101562 L 35.9375 25.804688 C 38.539062 23.21875 42.761719 23.21875 45.367188 25.804688 L 53.722656 34.101562 "/></g><g clip-rule="nonzero" clip-path="url(#5009594f60)"><path style=" stroke:none;fill-rule:nonzero;fill:#a37c25;fill-opacity:1;" d="M 65.667969 34.101562 C 63.0625 36.6875 58.84375 36.6875 56.238281 34.101562 L 47.882812 25.804688 C 50.488281 23.21875 54.710938 23.21875 57.3125 25.804688 L 65.667969 34.101562 "/></g><g clip-rule="nonzero" clip-path="url(#bcb39477ef)"><path style=" stroke:none;fill-rule:nonzero;fill:#a37c25;fill-opacity:1;" d="M 77.613281 34.101562 C 75.007812 36.6875 70.789062 36.6875 68.183594 34.101562 L 59.832031 25.804688 C 62.433594 23.21875 66.652344 23.21875 69.257812 25.804688 L 77.613281 34.101562 "/></g><g clip-rule="nonzero" clip-path="url(#75afb1fb8a)"><path style=" stroke:none;fill-rule:nonzero;fill:#a37c25;fill-opacity:1;" d="M 89.558594 34.101562 C 86.957031 36.6875 82.734375 36.6875 80.128906 34.101562 L 71.773438 25.804688 C 74.378906 23.21875 78.601562 23.21875 81.203125 25.804688 L 89.558594 34.101562 "/></g><g clip-rule="nonzero" clip-path="url(#70be068c4a)"><path style=" stroke:none;fill-rule:nonzero;fill:#a37c25;fill-opacity:1;" d="M 101.503906 34.101562 C 98.902344 36.6875 94.679688 36.6875 92.078125 34.101562 L 83.722656 25.804688 C 86.324219 23.21875 90.546875 23.21875 93.148438 25.804688 L 101.503906 34.101562 "/></g><g clip-rule="nonzero" clip-path="url(#a4eaa02b06)"><path style=" stroke:none;fill-rule:nonzero;fill:#a37c25;fill-opacity:1;" d="M 113.449219 34.101562 C 110.847656 36.6875 106.625 36.6875 104.023438 34.101562 L 95.667969 25.804688 C 98.273438 23.21875 102.492188 23.21875 105.09375 25.804688 L 113.449219 34.101562 "/></g><g clip-rule="nonzero" clip-path="url(#15d5a742a6)"><path style=" stroke:none;fill-rule:nonzero;fill:#a37c25;fill-opacity:1;" d="M 125.398438 34.101562 C 122.792969 36.6875 118.570312 36.6875 115.96875 34.101562 L 107.613281 25.804688 C 110.21875 23.21875 114.4375 23.21875 117.039062 25.804688 L 125.398438 34.101562 "/></g><g clip-rule="nonzero" clip-path="url(#d385098fc0)"><path style=" stroke:none;fill-rule:nonzero;fill:#a37c25;fill-opacity:1;" d="M 137.34375 34.101562 C 134.742188 36.6875 130.519531 36.6875 127.914062 34.101562 L 119.558594 25.804688 C 122.160156 23.21875 126.382812 23.21875 128.988281 25.804688 L 137.34375 34.101562 "/></g><g clip-rule="nonzero" clip-path="url(#7e40d29ce4)"><path style=" stroke:none;fill-rule:nonzero;fill:#a37c25;fill-opacity:1;" d="M 149.285156 34.101562 C 146.683594 36.6875 142.464844 36.6875 139.863281 34.101562 L 131.503906 25.804688 C 134.109375 23.21875 138.332031 23.21875 140.933594 25.804688 L 149.285156 34.101562 "/></g><g clip-rule="nonzero" clip-path="url(#cbc96d1d05)"><path style=" stroke:none;fill-rule:nonzero;fill:#a37c25;fill-opacity:1;" d="M 161.234375 34.101562 C 158.628906 36.6875 154.410156 36.6875 151.804688 34.101562 L 143.453125 25.804688 C 146.054688 23.21875 150.273438 23.21875 152.878906 25.804688 L 161.234375 34.101562 "/></g><g clip-rule="nonzero" clip-path="url(#b9133a7d81)"><path style=" stroke:none;fill-rule:nonzero;fill:#a37c25;fill-opacity:1;" d="M 173.179688 34.101562 C 170.578125 36.6875 166.355469 36.6875 163.75 34.101562 L 155.398438 25.804688 C 158 23.21875 162.21875 23.21875 164.824219 25.804688 L 173.179688 34.101562 "/></g><g clip-rule="nonzero" clip-path="url(#92d0273908)"><path style=" stroke:none;fill-rule:nonzero;fill:#a37c25;fill-opacity:1;" d="M 185.128906 34.101562 C 182.523438 36.6875 178.300781 36.6875 175.699219 34.101562 L 167.34375 25.804688 C 169.945312 23.21875 174.167969 23.21875 176.773438 25.804688 L 185.128906 34.101562 "/></g><g clip-rule="nonzero" clip-path="url(#f8dc40fcad)"><path style=" stroke:none;fill-rule:nonzero;fill:#a37c25;fill-opacity:1;" d="M 197.070312 34.101562 C 194.46875 36.6875 190.25 36.6875 187.644531 34.101562 L 179.289062 25.804688 C 181.890625 23.21875 186.113281 23.21875 188.71875 25.804688 L 197.070312 34.101562 "/></g><g clip-rule="nonzero" clip-path="url(#f5b69cb773)"><path style=" stroke:none;fill-rule:nonzero;fill:#a37c25;fill-opacity:1;" d="M 209.015625 34.101562 C 206.414062 36.6875 202.191406 36.6875 199.589844 34.101562 L 191.234375 25.804688 C 193.839844 23.21875 198.058594 23.21875 200.660156 25.804688 L 209.015625 34.101562 "/></g><g clip-rule="nonzero" clip-path="url(#60206bbe9c)"><path style=" stroke:none;fill-rule:nonzero;fill:#a37c25;fill-opacity:1;" d="M 220.964844 34.101562 C 218.359375 36.6875 214.140625 36.6875 211.535156 34.101562 L 203.179688 25.804688 C 205.78125 23.21875 210.003906 23.21875 212.609375 25.804688 L 220.964844 34.101562 "/></g><g clip-rule="nonzero" clip-path="url(#313c88d00f)"><path style=" stroke:none;fill-rule:nonzero;fill:#a37c25;fill-opacity:1;" d="M 232.910156 34.101562 C 230.308594 36.6875 226.085938 36.6875 223.484375 34.101562 L 215.125 25.804688 C 217.730469 23.21875 221.953125 23.21875 224.554688 25.804688 L 232.910156 34.101562 "/></g><g clip-rule="nonzero" clip-path="url(#8247e7d9ad)"><path style=" stroke:none;fill-rule:nonzero;fill:#a37c25;fill-opacity:1;" d="M 244.855469 34.101562 C 242.25 36.6875 238.03125 36.6875 235.429688 34.101562 L 227.074219 25.804688 C 229.675781 23.21875 233.898438 23.21875 236.5 25.804688 L 244.855469 34.101562 "/></g><g clip-rule="nonzero" clip-path="url(#d4ca133cb1)"><path style=" stroke:none;fill-rule:nonzero;fill:#a37c25;fill-opacity:1;" d="M 256.800781 34.101562 C 254.199219 36.6875 249.976562 36.6875 247.371094 34.101562 L 239.019531 25.804688 C 241.625 23.21875 245.84375 23.21875 248.445312 25.804688 L 256.800781 34.101562 "/></g><g clip-rule="nonzero" clip-path="url(#162a2093e0)"><path style=" stroke:none;fill-rule:nonzero;fill:#a37c25;fill-opacity:1;" d="M 268.746094 34.101562 C 266.144531 36.6875 261.921875 36.6875 259.320312 34.101562 L 250.960938 25.804688 C 253.566406 23.21875 257.789062 23.21875 260.390625 25.804688 L 268.746094 34.101562 "/></g><g clip-rule="nonzero" clip-path="url(#ae41a77cc4)"><path style=" stroke:none;fill-rule:nonzero;fill:#a37c25;fill-opacity:1;" d="M 280.691406 34.101562 C 278.089844 36.6875 273.871094 36.6875 271.265625 34.101562 L 262.910156 25.804688 C 265.515625 23.21875 269.734375 23.21875 272.339844 25.804688 L 280.691406 34.101562 "/></g><g clip-rule="nonzero" clip-path="url(#cd60290457)"><path style=" stroke:none;fill-rule:nonzero;fill:#a37c25;fill-opacity:1;" d="M 292.636719 34.101562 C 290.035156 36.6875 285.816406 36.6875 283.210938 34.101562 L 274.855469 25.804688 C 277.460938 23.21875 281.679688 23.21875 284.285156 25.804688 L 292.636719 34.101562 "/></g><g clip-rule="nonzero" clip-path="url(#fd4e1bf93e)"><path style=" stroke:none;fill-rule:nonzero;fill:#a37c25;fill-opacity:1;" d="M 304.585938 34.101562 C 301.980469 36.6875 297.757812 36.6875 295.15625 34.101562 L 286.804688 25.804688 C 289.40625 23.21875 293.625 23.21875 296.230469 25.804688 L 304.585938 34.101562 "/></g><g clip-rule="nonzero" clip-path="url(#d118e162fe)"><path style=" stroke:none;fill-rule:nonzero;fill:#a37c25;fill-opacity:1;" d="M 316.53125 34.101562 C 313.929688 36.6875 309.707031 36.6875 307.101562 34.101562 L 298.746094 25.804688 C 301.351562 23.21875 305.574219 23.21875 308.175781 25.804688 L 316.53125 34.101562 "/></g><g clip-rule="nonzero" clip-path="url(#7c9293cc50)"><path style=" stroke:none;fill-rule:nonzero;fill:#a37c25;fill-opacity:1;" d="M 328.476562 34.101562 C 325.871094 36.6875 321.652344 36.6875 319.050781 34.101562 L 310.695312 25.804688 C 313.296875 23.21875 317.519531 23.21875 320.121094 25.804688 L 328.476562 34.101562 "/></g><g clip-rule="nonzero" clip-path="url(#ea5c3512f8)"><path style=" stroke:none;fill-rule:nonzero;fill:#a37c25;fill-opacity:1;" d="M 340.421875 34.101562 C 337.820312 36.6875 333.597656 36.6875 330.996094 34.101562 L 322.640625 25.804688 C 325.246094 23.21875 329.464844 23.21875 332.066406 25.804688 L 340.421875 34.101562 "/></g><g clip-rule="nonzero" clip-path="url(#9398503349)"><path style=" stroke:none;fill-rule:nonzero;fill:#a37c25;fill-opacity:1;" d="M 352.371094 34.101562 C 349.765625 36.6875 345.542969 36.6875 342.941406 34.101562 L 334.585938 25.804688 C 337.1875 23.21875 341.410156 23.21875 344.011719 25.804688 L 352.371094 34.101562 "/></g><g clip-rule="nonzero" clip-path="url(#9f3c5d30e0)"><path style=" stroke:none;fill-rule:nonzero;fill:#a37c25;fill-opacity:1;" d="M 364.316406 34.101562 C 361.710938 36.6875 357.492188 36.6875 354.886719 34.101562 L 346.53125 25.804688 C 349.132812 23.21875 353.355469 23.21875 355.960938 25.804688 L 364.316406 34.101562 "/></g><g clip-rule="nonzero" clip-path="url(#cf0dd951cf)"><path style=" stroke:none;fill-rule:nonzero;fill:#a37c25;fill-opacity:1;" d="M 376.257812 34.101562 C 373.65625 36.6875 369.4375 36.6875 366.835938 34.101562 L 358.476562 25.804688 C 361.082031 23.21875 365.304688 23.21875 367.90625 25.804688 L 376.257812 34.101562 "/></g><g clip-rule="nonzero" clip-path="url(#f0a1dc342c)"><path style=" stroke:none;fill-rule:nonzero;fill:#a37c25;fill-opacity:1;" d="M 388.207031 34.101562 C 385.601562 36.6875 381.378906 36.6875 378.777344 34.101562 L 370.425781 25.804688 C 373.027344 23.21875 377.246094 23.21875 379.851562 25.804688 L 388.207031 34.101562 "/></g><g style="fill:#ae0429;fill-opacity:1;"><g transform="translate(6, 44.833832)"><path style="stroke:none" d="M 0.96875 4.140625 C 2.632812 4.140625 4.050781 4.09375 5.21875 4 C 6.394531 3.90625 7.375 3.660156 8.15625 3.265625 C 8.9375 2.878906 9.550781 2.296875 10 1.515625 C 10.457031 0.734375 10.796875 -0.34375 11.015625 -1.71875 C 11.242188 -3.09375 11.390625 -4.8125 11.453125 -6.875 C 11.515625 -8.945312 11.546875 -11.457031 11.546875 -14.40625 C 11.546875 -17.34375 11.515625 -19.835938 11.453125 -21.890625 C 11.390625 -23.941406 11.242188 -25.644531 11.015625 -27 C 10.796875 -28.363281 10.457031 -29.429688 10 -30.203125 C 9.550781 -30.984375 8.929688 -31.5625 8.140625 -31.9375 C 7.359375 -32.3125 6.378906 -32.539062 5.203125 -32.625 C 4.035156 -32.71875 2.609375 -32.765625 0.921875 -32.765625 L 0.984375 -35.546875 L 21.90625 -35.546875 L 21.90625 6.46875 L 0.96875 6.46875 Z M 0.96875 4.140625 "/></g></g></g></svg>